<svg id="Capa_1" enable-background="new 0 0 512 512" height="512" viewBox="0 0 512 512" width="512" xmlns="http://www.w3.org/2000/svg"><g><g><g><g><g><path d="m7.495 98.468h496.989v315h-496.989z" fill="#fbf2e2"/></g><g><path d="m30.17 390.75v-292.282h-22.675v315h494.988v-22.718z" fill="#f7e0ba"/></g><g><path d="m503.484 98.468-179.441 125.091h-136.092l-179.455-125.091z" fill="#e08ea2"/></g><g><path d="m496.606 98.468-156.189 108.882c-31.305-46.6-113.119-57.564-156.014-13.128l-137.368-95.754h-38.539l179.455 125.092h136.092l179.441-125.092z" fill="#d15573"/></g><g><path d="m256 188.056c-59.353-1.035-100.865 63.989-75.527 117.293 13.623 28.736 41.777 48.688 75.527 48.605 109.63-3.377 109.631-162.525 0-165.898z" fill="#d3e0ef"/></g><g><path d="m272.933 337.022c-33.75.082-61.904-19.869-75.528-48.605-13.698-28.816-7.852-61.051 9.78-84.429-29.921 22.431-44.154 64.672-26.713 101.362 13.623 28.736 41.777 48.688 75.528 48.605 30.744-.947 52.864-14.146 66.365-32.723-12.756 9.251-29.23 15.167-49.432 15.79z" fill="#9bb6f1"/></g><g><circle cx="255.99" cy="271" fill="#e08ea2" r="21.867"/></g><g><path d="m271.038 277.819c-12.077 0-21.867-9.79-21.867-21.867 0-2.076.295-4.081.836-5.983-9.167 2.603-15.884 11.03-15.884 21.031 0 12.077 9.79 21.867 21.867 21.867 10.001 0 18.428-6.717 21.031-15.884-1.902.54-3.908.836-5.983.836z" fill="#d15573"/></g><g><g><path d="m30.239 151h15v15h-15z" fill="#fff"/></g><g><path d="m30.239 181h15v15h-15z" fill="#fff"/></g></g></g></g></g><g><path d="m0 91.013v329.974h422.023v-14.999h-407.024v-293.187l94.467 65.204 8.52-12.344-86.42-59.65h448.953l-154.866 107.36c-34.034-43.27-105.211-43.26-139.237-.005l-55.199-38.48-8.577 12.304 55.184 38.469c-14.429 23.969-16.328 57.002-4.138 82.826l13.65-6.216c-23.104-48.268 15-107.835 68.699-106.675 41.599-.001 75.443 33.843 75.443 75.442.124 73.043-95.286 103.163-137.146 43.422l-12.258 8.644c69.033 91.958 206.835 3.273 152.173-97.437l162.757-112.828v293.151h-29.984v14.999h44.98v-329.974z"/><path d="m437.022 405.988h14.999v14.999h-14.999z"/><path d="m256.022 241.666c-16.192 0-29.364 13.173-29.364 29.364-.437 22.201 25.236 36.88 44.074 25.398 1.458 6.741 7.461 11.809 14.632 11.809 14.685 0 23.306-11.823 26.083-18.809 11.434-26.491-2.362-58.873-27.96-71.352-44.292-23.621-97.466 18.818-84.85 67.268 6.437 25.871 29.507 44.454 56.102 45.189l.414-14.993c-49.155-2.035-59.581-69.772-13.307-86.551 33.218-12.168 69.504 21.109 55.663 54.896-.037.093-3.948 9.352-12.124 9.375v-20.826h-.036c.848-16.657-12.646-30.815-29.327-30.768zm0 43.73c-18.985-.604-18.981-28.13 0-28.731 18.985.604 18.98 28.13 0 28.731z"/></g></g></svg>